<svg width="139" height="45" viewBox="0 0 139 45" fill="none" xmlns="http://www.w3.org/2000/svg">
<path d="M41.9062 0.945305C42.6719 0.671868 43.5156 0.86718 44.0937 1.43749C44.6719 2.00781 44.8594 2.85937 44.5859 3.62499L30.6797 42.4453C30.2891 43.5312 29.2656 44.25 28.1172 44.25C27.0078 44.25 26.0078 43.5781 25.5937 42.5547L20.5781 30.2109C20.2266 29.3516 20.3828 28.3672 20.9844 27.6641L28.3672 18.8828C28.7656 18.4062 28.7344 17.7109 28.2969 17.2734C27.8594 16.8359 27.1562 16.8047 26.6875 17.2031L17.9062 24.5703C17.1953 25.1641 16.2188 25.3203 15.3594 24.9766L2.97656 19.9375C1.95312 19.5234 1.28125 18.5234 1.28125 17.4141C1.28125 16.2656 2 15.2422 3.08594 14.8516L41.9062 0.945305Z" fill="#EF8F13"/>
<path d="M44.82 22L51.06 8H54.26L60.52 22H57.12L52 9.64H53.28L48.14 22H44.82ZM47.94 19L48.8 16.54H56L56.88 19H47.94ZM70.4772 22.24C69.3972 22.24 68.3905 22.0667 67.4572 21.72C66.5372 21.36 65.7372 20.8533 65.0572 20.2C64.3772 19.5467 63.8439 18.78 63.4572 17.9C63.0839 17.02 62.8972 16.0533 62.8972 15C62.8972 13.9467 63.0839 12.98 63.4572 12.1C63.8439 11.22 64.3772 10.4533 65.0572 9.8C65.7505 9.14667 66.5572 8.64667 67.4772 8.3C68.3972 7.94 69.4039 7.76 70.4972 7.76C71.7105 7.76 72.8039 7.97333 73.7772 8.4C74.7639 8.81333 75.5905 9.42667 76.2572 10.24L74.1772 12.16C73.6972 11.6133 73.1639 11.2067 72.5772 10.94C71.9905 10.66 71.3505 10.52 70.6572 10.52C70.0039 10.52 69.4039 10.6267 68.8572 10.84C68.3105 11.0533 67.8372 11.36 67.4372 11.76C67.0372 12.16 66.7239 12.6333 66.4972 13.18C66.2839 13.7267 66.1772 14.3333 66.1772 15C66.1772 15.6667 66.2839 16.2733 66.4972 16.82C66.7239 17.3667 67.0372 17.84 67.4372 18.24C67.8372 18.64 68.3105 18.9467 68.8572 19.16C69.4039 19.3733 70.0039 19.48 70.6572 19.48C71.3505 19.48 71.9905 19.3467 72.5772 19.08C73.1639 18.8 73.6972 18.38 74.1772 17.82L76.2572 19.74C75.5905 20.5533 74.7639 21.1733 73.7772 21.6C72.8039 22.0267 71.7039 22.24 70.4772 22.24ZM86.8522 22.24C85.7722 22.24 84.7655 22.0667 83.8322 21.72C82.9122 21.36 82.1122 20.8533 81.4322 20.2C80.7522 19.5467 80.2189 18.78 79.8322 17.9C79.4589 17.02 79.2722 16.0533 79.2722 15C79.2722 13.9467 79.4589 12.98 79.8322 12.1C80.2189 11.22 80.7522 10.4533 81.4322 9.8C82.1255 9.14667 82.9322 8.64667 83.8522 8.3C84.7722 7.94 85.7789 7.76 86.8722 7.76C88.0855 7.76 89.1789 7.97333 90.1522 8.4C91.1389 8.81333 91.9655 9.42667 92.6322 10.24L90.5522 12.16C90.0722 11.6133 89.5389 11.2067 88.9522 10.94C88.3655 10.66 87.7255 10.52 87.0322 10.52C86.3789 10.52 85.7789 10.6267 85.2322 10.84C84.6855 11.0533 84.2122 11.36 83.8122 11.76C83.4122 12.16 83.0989 12.6333 82.8722 13.18C82.6589 13.7267 82.5522 14.3333 82.5522 15C82.5522 15.6667 82.6589 16.2733 82.8722 16.82C83.0989 17.3667 83.4122 17.84 83.8122 18.24C84.2122 18.64 84.6855 18.9467 85.2322 19.16C85.7789 19.3733 86.3789 19.48 87.0322 19.48C87.7255 19.48 88.3655 19.3467 88.9522 19.08C89.5389 18.8 90.0722 18.38 90.5522 17.82L92.6322 19.74C91.9655 20.5533 91.1389 21.1733 90.1522 21.6C89.1789 22.0267 88.0789 22.24 86.8522 22.24ZM99.8002 13.64H106.54V16.16H99.8002V13.64ZM100.04 19.4H107.66V22H96.8202V8H107.4V10.6H100.04V19.4ZM116.838 22.24C115.718 22.24 114.645 22.0933 113.618 21.8C112.591 21.4933 111.765 21.1 111.138 20.62L112.238 18.18C112.838 18.6067 113.545 18.96 114.358 19.24C115.185 19.5067 116.018 19.64 116.858 19.64C117.498 19.64 118.011 19.58 118.398 19.46C118.798 19.3267 119.091 19.1467 119.278 18.92C119.465 18.6933 119.558 18.4333 119.558 18.14C119.558 17.7667 119.411 17.4733 119.118 17.26C118.825 17.0333 118.438 16.8533 117.958 16.72C117.478 16.5733 116.945 16.44 116.358 16.32C115.785 16.1867 115.205 16.0267 114.618 15.84C114.045 15.6533 113.518 15.4133 113.038 15.12C112.558 14.8267 112.165 14.44 111.858 13.96C111.565 13.48 111.418 12.8667 111.418 12.12C111.418 11.32 111.631 10.5933 112.058 9.94C112.498 9.27333 113.151 8.74667 114.018 8.36C114.898 7.96 115.998 7.76 117.318 7.76C118.198 7.76 119.065 7.86667 119.918 8.08C120.771 8.28 121.525 8.58667 122.178 9L121.178 11.46C120.525 11.0867 119.871 10.8133 119.218 10.64C118.565 10.4533 117.925 10.36 117.298 10.36C116.671 10.36 116.158 10.4333 115.758 10.58C115.358 10.7267 115.071 10.92 114.898 11.16C114.725 11.3867 114.638 11.6533 114.638 11.96C114.638 12.32 114.785 12.6133 115.078 12.84C115.371 13.0533 115.758 13.2267 116.238 13.36C116.718 13.4933 117.245 13.6267 117.818 13.76C118.405 13.8933 118.985 14.0467 119.558 14.22C120.145 14.3933 120.678 14.6267 121.158 14.92C121.638 15.2133 122.025 15.6 122.318 16.08C122.625 16.56 122.778 17.1667 122.778 17.9C122.778 18.6867 122.558 19.4067 122.118 20.06C121.678 20.7133 121.018 21.24 120.138 21.64C119.271 22.04 118.171 22.24 116.838 22.24ZM131.592 22.24C130.472 22.24 129.399 22.0933 128.372 21.8C127.345 21.4933 126.519 21.1 125.892 20.62L126.992 18.18C127.592 18.6067 128.299 18.96 129.112 19.24C129.939 19.5067 130.772 19.64 131.612 19.64C132.252 19.64 132.765 19.58 133.152 19.46C133.552 19.3267 133.845 19.1467 134.032 18.92C134.219 18.6933 134.312 18.4333 134.312 18.14C134.312 17.7667 134.165 17.4733 133.872 17.26C133.579 17.0333 133.192 16.8533 132.712 16.72C132.232 16.5733 131.699 16.44 131.112 16.32C130.539 16.1867 129.959 16.0267 129.372 15.84C128.799 15.6533 128.272 15.4133 127.792 15.12C127.312 14.8267 126.919 14.44 126.612 13.96C126.319 13.48 126.172 12.8667 126.172 12.12C126.172 11.32 126.385 10.5933 126.812 9.94C127.252 9.27333 127.905 8.74667 128.772 8.36C129.652 7.96 130.752 7.76 132.072 7.76C132.952 7.76 133.819 7.86667 134.672 8.08C135.525 8.28 136.279 8.58667 136.932 9L135.932 11.46C135.279 11.0867 134.625 10.8133 133.972 10.64C133.319 10.4533 132.679 10.36 132.052 10.36C131.425 10.36 130.912 10.4333 130.512 10.58C130.112 10.7267 129.825 10.92 129.652 11.16C129.479 11.3867 129.392 11.6533 129.392 11.96C129.392 12.32 129.539 12.6133 129.832 12.84C130.125 13.0533 130.512 13.2267 130.992 13.36C131.472 13.4933 131.999 13.6267 132.572 13.76C133.159 13.8933 133.739 14.0467 134.312 14.22C134.899 14.3933 135.432 14.6267 135.912 14.92C136.392 15.2133 136.779 15.6 137.072 16.08C137.379 16.56 137.532 17.1667 137.532 17.9C137.532 18.6867 137.312 19.4067 136.872 20.06C136.432 20.7133 135.772 21.24 134.892 21.64C134.025 22.04 132.925 22.24 131.592 22.24Z" fill="black"/>
<path d="M46.5292 37V30H49.5592C50.1859 30 50.7259 30.1033 51.1792 30.31C51.6326 30.51 51.9826 30.8 52.2292 31.18C52.4759 31.56 52.5992 32.0133 52.5992 32.54C52.5992 33.06 52.4759 33.51 52.2292 33.89C51.9826 34.27 51.6326 34.5633 51.1792 34.77C50.7259 34.97 50.1859 35.07 49.5592 35.07H47.4292L48.1492 34.34V37H46.5292ZM48.1492 34.52L47.4292 33.75H49.4692C49.9692 33.75 50.3426 33.6433 50.5892 33.43C50.8359 33.2167 50.9592 32.92 50.9592 32.54C50.9592 32.1533 50.8359 31.8533 50.5892 31.64C50.3426 31.4267 49.9692 31.32 49.4692 31.32H47.4292L48.1492 30.55V34.52ZM58.2534 37.12C57.7001 37.12 57.1868 37.03 56.7134 36.85C56.2468 36.67 55.8401 36.4167 55.4934 36.09C55.1534 35.7633 54.8868 35.38 54.6934 34.94C54.5068 34.5 54.4134 34.02 54.4134 33.5C54.4134 32.98 54.5068 32.5 54.6934 32.06C54.8868 31.62 55.1568 31.2367 55.5034 30.91C55.8501 30.5833 56.2568 30.33 56.7234 30.15C57.1901 29.97 57.6968 29.88 58.2434 29.88C58.7968 29.88 59.3034 29.97 59.7634 30.15C60.2301 30.33 60.6334 30.5833 60.9734 30.91C61.3201 31.2367 61.5901 31.62 61.7834 32.06C61.9768 32.4933 62.0734 32.9733 62.0734 33.5C62.0734 34.02 61.9768 34.5033 61.7834 34.95C61.5901 35.39 61.3201 35.7733 60.9734 36.1C60.6334 36.42 60.2301 36.67 59.7634 36.85C59.3034 37.03 58.8001 37.12 58.2534 37.12ZM58.2434 35.74C58.5568 35.74 58.8434 35.6867 59.1034 35.58C59.3701 35.4733 59.6034 35.32 59.8034 35.12C60.0034 34.92 60.1568 34.6833 60.2634 34.41C60.3768 34.1367 60.4334 33.8333 60.4334 33.5C60.4334 33.1667 60.3768 32.8633 60.2634 32.59C60.1568 32.3167 60.0034 32.08 59.8034 31.88C59.6101 31.68 59.3801 31.5267 59.1134 31.42C58.8468 31.3133 58.5568 31.26 58.2434 31.26C57.9301 31.26 57.6401 31.3133 57.3734 31.42C57.1134 31.5267 56.8834 31.68 56.6834 31.88C56.4834 32.08 56.3268 32.3167 56.2134 32.59C56.1068 32.8633 56.0534 33.1667 56.0534 33.5C56.0534 33.8267 56.1068 34.13 56.2134 34.41C56.3268 34.6833 56.4801 34.92 56.6734 35.12C56.8734 35.32 57.1068 35.4733 57.3734 35.58C57.6401 35.6867 57.9301 35.74 58.2434 35.74ZM64.2909 37V30H65.9109V37H64.2909ZM68.5722 37V30H69.9122L74.0422 35.04H73.3922V30H74.9922V37H73.6622L69.5222 31.96H70.1722V37H68.5722ZM79.0984 37V31.32H76.8584V30H82.9584V31.32H80.7184V37H79.0984Z" fill="#172E54"/>
</svg>
