<svg width="103" height="55" viewBox="0 0 103 55" fill="none" xmlns="http://www.w3.org/2000/svg">
<path fill-rule="evenodd" clip-rule="evenodd" d="M49.73 24C39.3834 24 30.1419 28.2662 24.25 34.9394C25.7067 35.7044 34.4092 28.9755 49.5376 28.7494H49.9644C65.0672 28.7419 73.7953 35.7044 75.25 34.9394C69.3576 28.2662 60.1161 24 49.766 24H49.73Z" fill="#EC1B2E"/>
<mask id="mask0" mask-type="alpha" maskUnits="userSpaceOnUse" x="0" y="0" width="103" height="55">
<path fill-rule="evenodd" clip-rule="evenodd" d="M0.25 0.0586014H102.137V54.9998H0.25V0.0586014Z" fill="white"/>
</mask>
<g mask="url(#mask0)">
<path fill-rule="evenodd" clip-rule="evenodd" d="M63.3242 16.1249C62.8559 14.2312 62.7016 13.2357 62.8177 11.6477C62.8177 11.6477 63.0222 11.953 63.3151 12.1397C63.5312 12.2754 63.9859 12.4561 63.9859 12.4561C64.2854 8.39366 62.7584 5.31113 61.1395 3.44416C59.519 1.57567 57.2097 1.226 55.5425 2.56164C55.1421 2.88306 54.5612 3.56072 54.5612 3.56072C54.5612 3.56072 55.7345 4.55526 55.431 6.13563C55.1672 7.4965 54.1522 7.66705 54.1522 7.66705C54.1522 7.66705 53.5809 3.4043 50.4832 3.88719C51.2073 2.02274 52.8041 2.61159 52.9544 3.08742C53.0332 2.92191 53.3895 1.36274 52.3213 1.25072C51.4671 -1.15667 48.5166 0.733518 47.7227 1.29613C46.9107 1.87439 45.7651 1.25072 45.7651 1.25072C45.7651 1.25072 46.3887 2.437 46.9896 2.56164C46.1475 3.71866 45.5837 5.63155 46.5128 7.49196L46.4394 7.57219C45.6335 7.92288 43.6 8.19636 43.2553 5.90251C43.0443 4.46696 44.1618 3.52893 44.1618 3.52893C43.9512 3.08944 43.7673 2.80182 43.3679 2.47889C41.7012 1.14122 40.036 1.57921 38.3086 3.44416C36.6318 5.25109 35.1596 8.39366 35.4611 12.4561C35.4611 12.4561 35.8038 12.335 36.0234 12.1856C36.3796 11.9414 36.6308 11.6477 36.6308 11.6477C36.6308 11.6477 36.4349 14.1298 35.7792 15.9705C35.2094 17.5731 34.722 18.7251 34.0155 19.9911C34.0155 19.9911 35.8038 19.6106 38.7899 17.3304C41.5304 15.2465 42.3368 13.7927 42.3368 13.7927C42.3368 13.7927 42.4428 14.0753 42.4112 14.6485C42.38 15.1713 42.18 15.8873 42.18 15.8873C42.18 15.8873 45.2531 14.6884 46.0204 11.7915C46.1882 11.1628 46.5339 11.1376 46.4987 11.7466C45.941 16.5493 42.1238 19.2271 38.0031 20.4008C37.7337 20.5048 38.6357 20.9654 39.004 21.1315C41.0616 22.0584 43.7593 21.9267 43.9723 21.7844C44.7029 21.303 45.3315 20.6804 45.6425 19.8725C45.849 19.3513 45.7777 19.8387 45.7777 19.8387C45.7777 19.8387 45.6259 20.4846 45.9802 21.5079C46.1148 21.906 46.2791 22.3632 46.2525 22.8178C46.2173 23.3925 46.2791 23.0151 45.8048 23.4203C45.3044 23.8512 45.0903 24.5606 45.0903 24.5606C45.5516 24.5041 45.8048 24.5016 46.3183 24.4415C46.5675 24.4118 47.0308 24.3664 47.7026 24.3442C48.6096 24.3154 49.2175 24.38 49.6135 24.7312C49.6612 24.7746 49.8356 24.5041 49.7326 24.1055C49.5542 23.4152 48.4553 23.0443 47.5805 23.0423C47.5805 23.0423 47.4544 22.3894 47.7915 21.9489C48.5719 20.9145 48.9879 20.8343 49.5512 19.211C49.7265 18.6206 49.7723 18.5449 49.7964 18.4889C50.0416 19.65 50.3868 20.5063 50.9194 21.3227C51.5399 22.07 51.4319 23.0973 51.2028 23.1836C50.6792 23.3668 50.3717 24.2927 50.3717 24.2927C50.3717 24.2927 51.1395 24.3194 52.1755 24.38C53.2001 24.4491 54.3814 24.6298 54.6874 24.9678C54.6874 24.9678 55.0019 24.5768 54.6874 24.0843C54.3894 23.607 53.5809 23.2033 52.7539 23.0443C52.7539 23.0443 52.6539 22.0871 52.992 21.4715C54.9366 17.9606 54.3934 14.2958 54.3864 13.5127C55.1099 15.031 56.9766 15.2237 56.9766 15.2237C56.9766 15.2237 56.8017 14.1 56.7947 13.6545C56.7866 13.1322 56.8555 12.5499 56.8555 12.5499C56.8555 12.5499 58.0277 15.4029 59.8642 17.0615C62.9272 19.8377 64.7105 20.1026 64.7105 20.1026C64.0055 18.8457 63.7307 17.7714 63.3242 16.1249ZM21.2143 39.3763L14.1542 54.8621C14.1542 54.8621 17.3639 54.8349 18.5919 52.3518C18.7612 52.0142 18.9371 51.6499 19.1155 51.2795C19.8013 51.2795 20.846 51.329 22.5192 51.8976C24.3672 52.5248 25.2918 53.7318 27.0142 54.3439C28.6176 54.9105 29.1346 54.8787 29.1346 54.8787L22.3121 39.3763H21.2143ZM20.3053 48.2858C21.168 46.3225 21.7539 44.95 21.7539 44.95C21.7539 44.95 22.7975 47.314 23.6874 49.3404C22.8809 48.9584 21.6715 48.5038 20.3053 48.2858ZM5.91678 39.3193H0.25C0.25 39.3193 0.260049 40.0328 0.981586 41.1585C1.99254 42.7308 2.20458 42.1026 2.20458 43.3979C2.20458 52.5546 2.23171 54.7738 2.23171 54.7738H5.92884C7.80152 54.7738 9.33101 54.5745 10.8093 53.6344C13.0829 52.1923 14.2642 49.9227 14.2642 47.0566C14.2642 42.4265 11.3037 39.3193 5.91678 39.3193ZM6.13786 51.4682L5.28217 51.4465V42.5996L6.13786 42.6178C9.19183 42.6178 10.9635 44.3833 10.9635 47.0677C10.9635 49.7532 9.19183 51.4682 6.13786 51.4682ZM55.9314 50.1356V51.4006C55.3104 51.6121 54.7225 51.7241 54.1542 51.7241C51.6731 51.7241 49.9335 49.736 49.9335 46.8609C49.9335 44.1578 51.753 42.1127 54.2341 42.1127C55.6787 42.1127 57.7021 42.6889 58.9543 44.0528L58.9432 40.3098C57.6001 39.3274 55.6978 38.9182 54.0593 38.9182C49.7175 38.9182 46.5937 42.3519 46.5937 46.987C46.5937 51.6121 49.7175 54.9998 53.9201 54.9998C55.5822 54.9998 57.1228 54.52 58.9784 53.4962V46.1696L54.2994 46.1373C54.2994 46.1373 55.9314 48.1112 55.9314 50.1356ZM95.3673 48.4902H100.527V45.3405H95.3673V42.5633H99.4699C101.773 42.5633 102.137 39.3935 102.137 39.3935H92.161V54.7627H101.365V51.5283H95.3673V48.4902ZM77.4218 42.5779H81.8183L81.8219 54.7738H85.1256L85.122 42.5779H89.4975V39.4026H77.4218V42.5779ZM40.4822 39.3854L40.4742 47.5764L31.5404 39.3763H30.9867L30.9806 54.7677H34.2376L34.2517 46.4703L43.2367 54.7627H43.7839L43.7653 39.3854H40.4822ZM68.8598 38.8278C66.9836 38.8278 65.2079 39.6417 63.8995 41.1176C62.5318 42.6582 61.8098 44.6498 61.8098 46.8947C61.8098 49.1441 62.5318 51.1135 63.8995 52.6485C65.226 54.1521 67.0082 54.9635 68.8598 54.9635C71.0531 54.9635 73.1227 53.8282 74.4708 51.8628C75.432 50.4676 75.9134 48.7798 75.9134 46.8947C75.9134 44.6498 75.2145 42.6405 73.8633 41.1378C72.5163 39.6417 70.737 38.8278 68.8598 38.8278ZM68.8598 51.5843C66.8113 51.5843 65.1717 49.5982 65.1717 46.8947C65.1717 44.1709 66.8113 42.1854 68.8598 42.1854C70.9139 42.1854 72.5534 44.1497 72.5534 46.8947C72.5534 49.6164 70.9139 51.5843 68.8598 51.5843Z" fill="white"/>
</g>
</svg>
